<svg width="30" height="35" viewBox="0 0 30 35" fill="none" xmlns="http://www.w3.org/2000/svg">
<g clip-path="url(#clip0_3_76)">
<path d="M3.5625 31.9238C3.6136 32.7569 3.97377 33.5387 4.56968 34.1102C5.16559 34.6817 5.95246 34.9999 6.77009 35H23.2299C24.0475 34.9999 24.8344 34.6817 25.4303 34.1102C26.0262 33.5387 26.3864 32.7569 26.4375 31.9238L27.8571 8.75001H2.14286L3.5625 31.9238ZM8.25737 19.9063L14.2426 13.4627C14.3392 13.3561 14.4564 13.2711 14.5867 13.213C14.7171 13.1548 14.8578 13.1248 15 13.1248C15.1422 13.1248 15.2829 13.1548 15.4133 13.213C15.5436 13.2711 15.6608 13.3561 15.7574 13.4627L21.7426 19.9063C22.4176 20.6322 21.9395 21.875 20.9846 21.875H17.1429V29.5313C17.1429 29.8213 17.03 30.0995 16.829 30.3047C16.6281 30.5098 16.3556 30.625 16.0714 30.625H13.9286C13.6444 30.625 13.3719 30.5098 13.171 30.3047C12.97 30.0995 12.8571 29.8213 12.8571 29.5313V21.875H9.0154C8.06049 21.875 7.58237 20.6322 8.25737 19.9063ZM28.9286 2.18751H20.8929L20.2634 0.909192C20.1301 0.6359 19.9247 0.406014 19.6703 0.245394C19.416 0.0847737 19.1227 -0.00020699 18.8237 1.19853e-05H11.1696C10.8712 -0.00115905 10.5785 0.0835048 10.3251 0.244304C10.0716 0.405102 9.86769 0.635532 9.73661 0.909192L9.10714 2.18751H1.07143C0.787268 2.18751 0.514746 2.30275 0.313814 2.50786C0.112882 2.71298 0 2.99118 0 3.28126L0 5.46876C0 5.75884 0.112882 6.03704 0.313814 6.24216C0.514746 6.44728 0.787268 6.56251 1.07143 6.56251H28.9286C29.2127 6.56251 29.4853 6.44728 29.6862 6.24216C29.8871 6.03704 30 5.75884 30 5.46876V3.28126C30 2.99118 29.8871 2.71298 29.6862 2.50786C29.4853 2.30275 29.2127 2.18751 28.9286 2.18751Z" fill="white"/>
</g>
<defs>
<clipPath id="clip0_3_76">
<rect width="30" height="35" fill="white"/>
</clipPath>
</defs>
</svg>
